<svg width="1440" height="1024" viewBox="0 0 1440 1024" fill="none" xmlns="http://www.w3.org/2000/svg">
<g clip-path="url(#clip0_202_252)">
<rect width="1440" height="1024" fill="#9EAEE6"/>
<g filter="url(#filter0_f_202_252)">
<path d="M159 1001C154.276 1001 149.745 999.123 146.405 995.783C143.064 992.442 141.187 987.912 141.187 983.188V937.124L118.174 960.174C114.829 963.514 110.294 965.388 105.568 965.385C100.841 965.382 96.3089 963.501 92.9689 960.156C89.6289 956.811 87.7544 952.277 87.7578 947.55C87.7611 942.823 89.642 938.291 92.9867 934.951L141.187 886.751V746.851L20.0624 816.783L2.39238 882.689C1.1641 887.253 -1.82674 891.142 -5.92218 893.5C-10.0176 895.858 -14.8822 896.493 -19.4457 895.265C-24.0093 894.037 -27.898 891.046 -30.2564 886.95C-32.6148 882.855 -33.2497 877.99 -32.0214 873.427L-23.5782 842.006L-63.4782 865.019C-67.5672 867.344 -72.4098 867.957 -76.9492 866.725C-81.4886 865.492 -85.3562 862.515 -87.7081 858.441C-90.06 854.368 -90.7052 849.529 -89.503 844.982C-88.3007 840.434 -85.3485 836.547 -81.2907 834.168L-41.3907 811.154L-72.8832 802.711C-75.1429 802.103 -77.2606 801.056 -79.1155 799.629C-80.9704 798.203 -82.5261 796.425 -83.6939 794.397C-84.8616 792.369 -85.6185 790.131 -85.9214 787.81C-86.2242 785.49 -86.067 783.133 -85.4589 780.873C-84.8507 778.613 -83.8034 776.496 -82.3768 774.641C-80.9502 772.786 -79.1722 771.23 -77.1443 770.062C-75.1164 768.895 -72.8784 768.138 -70.5581 767.835C-68.2377 767.532 -65.8804 767.689 -63.6207 768.298L2.21425 785.932L123.375 716L2.24987 646.068L-63.6564 663.703C-68.1902 664.832 -72.9865 664.136 -77.0115 661.762C-81.0364 659.389 -83.9676 655.529 -85.1733 651.015C-86.379 646.501 -85.7626 641.693 -83.457 637.629C-81.1513 633.565 -77.3411 630.57 -72.8476 629.289L-41.3907 620.846L-81.2907 597.832C-83.3329 596.671 -85.1252 595.117 -86.5644 593.261C-88.0037 591.404 -89.0616 589.281 -89.677 587.014C-90.2925 584.747 -90.4535 582.381 -90.1507 580.051C-89.8479 577.722 -89.0874 575.475 -87.9128 573.441C-86.7382 571.406 -85.1728 569.624 -83.3068 568.197C-81.4407 566.771 -79.3108 565.727 -77.0397 565.126C-74.7686 564.526 -72.4012 564.381 -70.0738 564.699C-67.7463 565.017 -65.5048 565.793 -63.4782 566.981L-23.5782 589.994L-32.0214 558.537C-32.6696 556.264 -32.8587 553.884 -32.5776 551.536C-32.2965 549.189 -31.551 546.921 -30.3843 544.864C-29.2177 542.808 -27.6534 541.005 -25.7826 539.559C-23.9117 538.113 -21.7719 537.055 -19.4877 536.445C-17.2035 535.835 -14.8207 535.685 -12.4782 536.006C-10.1358 536.326 -7.88053 537.109 -5.84397 538.31C-3.8074 539.511 -2.03026 541.105 -0.616186 543C0.797892 544.895 1.82062 547.052 2.39238 549.346L20.0267 615.217L141.187 685.149V545.249L92.9867 497.049C91.3306 495.395 90.0164 493.431 89.1192 491.269C88.2221 489.108 87.7594 486.791 87.7578 484.45C87.7561 482.11 88.2155 479.792 89.1096 477.629C90.0037 475.466 91.3151 473.5 92.9689 471.844C94.6227 470.188 96.5865 468.874 98.7482 467.977C100.91 467.079 103.227 466.617 105.568 466.615C107.908 466.613 110.226 467.073 112.389 467.967C114.552 468.861 116.517 470.172 118.174 471.826L141.187 494.876V448.812C141.187 444.088 143.064 439.558 146.405 436.217C149.745 432.877 154.276 431 159 431C163.724 431 168.255 432.877 171.595 436.217C174.936 439.558 176.812 444.088 176.812 448.812V494.876L199.862 471.826C203.206 468.486 207.741 466.612 212.468 466.615C217.195 466.618 221.726 468.499 225.066 471.844C228.406 475.189 230.281 479.723 230.278 484.45C230.274 489.177 228.393 493.709 225.049 497.049L176.812 545.249V685.149L297.937 615.217L315.607 549.311C316.836 544.747 319.826 540.858 323.922 538.5C328.017 536.142 332.882 535.507 337.445 536.735C342.009 537.963 345.898 540.954 348.256 545.05C350.614 549.145 351.249 554.01 350.021 558.573L341.614 589.994L381.514 566.981C385.603 564.656 390.445 564.043 394.985 565.275C399.524 566.508 403.392 569.485 405.743 573.559C408.095 577.632 408.741 582.471 407.538 587.018C406.336 591.566 403.384 595.453 399.326 597.832L359.426 620.846L390.883 629.289C395.446 630.517 399.335 633.508 401.694 637.603C404.052 641.699 404.687 646.563 403.459 651.127C402.23 655.69 399.239 659.579 395.144 661.938C391.049 664.296 386.184 664.931 381.62 663.703L315.785 646.068L194.625 716L315.75 785.932L381.62 768.298C386.184 767.074 391.047 767.713 395.139 770.075C399.231 772.437 402.217 776.327 403.441 780.891C404.664 785.454 404.025 790.317 401.663 794.409C399.301 798.501 395.411 801.488 390.847 802.711L359.39 811.154L399.29 834.168C403.348 836.547 406.3 840.434 407.503 844.982C408.705 849.529 408.06 854.368 405.708 858.441C403.356 862.515 399.488 865.492 394.949 866.725C390.41 867.957 385.567 867.344 381.478 865.019L341.578 842.006L349.985 873.463C350.634 875.736 350.823 878.116 350.542 880.464C350.261 882.811 349.515 885.079 348.348 887.136C347.182 889.192 345.617 890.995 343.747 892.441C341.876 893.887 339.736 894.945 337.452 895.555C335.168 896.165 332.785 896.315 330.442 895.994C328.1 895.674 325.845 894.891 323.808 893.69C321.772 892.489 319.994 890.895 318.58 889C317.166 887.105 316.143 884.948 315.572 882.654L297.937 816.783L176.812 746.851V886.751L225.013 934.951C228.358 938.291 230.239 942.823 230.242 947.55C230.245 952.277 228.371 956.811 225.031 960.156C221.691 963.501 217.159 965.382 212.432 965.385C207.705 965.388 203.171 963.514 199.826 960.174L176.777 937.124V983.188C176.777 987.912 174.9 992.442 171.56 995.783C168.219 999.123 163.688 1001 158.964 1001H159Z" fill="#8ACBDE"/>
</g>
<g filter="url(#filter1_f_202_252)">
<path d="M292 380C288.851 380 285.83 378.749 283.603 376.522C281.376 374.295 280.125 371.274 280.125 368.125V337.416L264.782 352.783C262.553 355.009 259.53 356.259 256.378 356.257C253.227 356.254 250.206 355 247.979 352.771C245.753 350.541 244.503 347.518 244.505 344.367C244.507 341.215 245.761 338.194 247.991 335.967L280.125 303.834V210.568L199.375 257.189L187.595 301.126C186.776 304.169 184.782 306.761 182.052 308.333C179.322 309.906 176.079 310.329 173.036 309.51C169.994 308.691 167.401 306.697 165.829 303.967C164.257 301.237 163.834 297.994 164.653 294.951L170.281 274.004L143.681 289.346C140.955 290.896 137.727 291.305 134.701 290.483C131.674 289.662 129.096 287.676 127.528 284.961C125.96 282.245 125.53 279.019 126.331 275.988C127.133 272.956 129.101 270.365 131.806 268.779L158.406 253.436L137.411 247.808C135.905 247.402 134.493 246.704 133.256 245.753C132.02 244.802 130.983 243.616 130.204 242.264C129.426 240.913 128.921 239.421 128.719 237.874C128.517 236.327 128.622 234.755 129.028 233.249C129.433 231.742 130.131 230.331 131.082 229.094C132.033 227.857 133.219 226.82 134.571 226.042C135.922 225.263 137.414 224.759 138.961 224.557C140.508 224.355 142.08 224.46 143.586 224.865L187.476 236.621L268.25 190L187.5 143.379L143.563 155.135C140.54 155.888 137.342 155.424 134.659 153.842C131.976 152.259 130.022 149.686 129.218 146.677C128.414 143.667 128.825 140.462 130.362 137.753C131.899 135.043 134.439 133.047 137.435 132.192L158.406 126.564L131.806 111.221C130.445 110.447 129.25 109.412 128.29 108.174C127.331 106.936 126.626 105.521 126.215 104.009C125.805 102.498 125.698 100.921 125.9 99.3675C126.101 97.8145 126.609 96.3167 127.392 94.9605C128.175 93.6042 129.218 92.4163 130.462 91.465C131.706 90.5137 133.126 89.8179 134.64 89.4176C136.154 89.0173 137.733 88.9204 139.284 89.1326C140.836 89.3447 142.33 89.8617 143.681 90.6537L170.281 105.996L164.653 85.025C164.22 83.5092 164.094 81.9226 164.282 80.3576C164.469 78.7926 164.966 77.2806 165.744 75.9097C166.522 74.5387 167.564 73.3364 168.812 72.3726C170.059 71.4089 171.486 70.7031 173.008 70.2964C174.531 69.8897 176.12 69.7902 177.681 70.0038C179.243 70.2173 180.746 70.7396 182.104 71.5401C183.462 72.3407 184.647 73.4036 185.589 74.6667C186.532 75.9299 187.214 77.3681 187.595 78.8975L199.351 122.811L280.125 169.432V76.1663L247.991 44.0325C246.887 42.93 246.011 41.6208 245.413 40.1796C244.815 38.7385 244.506 37.1937 244.505 35.6334C244.504 34.0731 244.81 32.5278 245.406 31.0859C246.003 29.6439 246.877 28.3335 247.979 27.2294C249.082 26.1253 250.391 25.2492 251.832 24.651C253.273 24.0529 254.818 23.7445 256.378 23.7434C257.939 23.7423 259.484 24.0485 260.926 24.6446C262.368 25.2407 263.678 26.115 264.782 27.2175L280.125 42.5837V11.875C280.125 8.72555 281.376 5.7051 283.603 3.47811C285.83 1.25111 288.851 0 292 0C295.149 0 298.17 1.25111 300.397 3.47811C302.624 5.7051 303.875 8.72555 303.875 11.875V42.5837L319.241 27.2175C321.471 24.9908 324.494 23.7412 327.645 23.7434C330.796 23.7456 333.818 24.9996 336.044 27.2294C338.271 29.4592 339.521 32.4822 339.518 35.6334C339.516 38.7846 338.262 41.8058 336.032 44.0325L303.875 76.1663V169.432L384.625 122.811L396.405 78.8738C397.224 75.8314 399.218 73.2389 401.948 71.6667C404.678 70.0944 407.921 69.6711 410.964 70.49C414.006 71.3089 416.599 73.3027 418.171 76.033C419.743 78.7633 420.166 82.0064 419.347 85.0488L413.742 105.996L440.342 90.6537C443.068 89.1039 446.297 88.6951 449.323 89.5167C452.349 90.3383 454.928 92.3236 456.496 95.0393C458.064 97.7549 458.494 100.981 457.692 104.012C456.891 107.044 454.923 109.635 452.217 111.221L425.617 126.564L446.589 132.192C449.631 133.011 452.224 135.005 453.796 137.736C455.368 140.466 455.791 143.709 454.972 146.751C454.154 149.794 452.16 152.386 449.429 153.958C446.699 155.531 443.456 155.954 440.414 155.135L396.524 143.379L315.75 190L396.5 236.621L440.414 224.865C443.456 224.049 446.698 224.476 449.426 226.05C452.154 227.625 454.145 230.218 454.961 233.261C455.776 236.303 455.35 239.545 453.776 242.273C452.201 245.001 449.607 246.992 446.565 247.808L425.594 253.436L452.194 268.779C454.899 270.365 456.867 272.956 457.669 275.988C458.47 279.019 458.04 282.245 456.472 284.961C454.904 287.676 452.326 289.662 449.299 290.483C446.273 291.305 443.045 290.896 440.319 289.346L413.719 274.004L419.324 294.975C419.756 296.491 419.882 298.077 419.695 299.642C419.507 301.207 419.01 302.719 418.232 304.09C417.455 305.461 416.412 306.664 415.165 307.627C413.917 308.591 412.491 309.297 410.968 309.704C409.445 310.11 407.857 310.21 406.295 309.996C404.733 309.783 403.23 309.26 401.872 308.46C400.514 307.659 399.33 306.596 398.387 305.333C397.444 304.07 396.762 302.632 396.381 301.103L384.625 257.189L303.875 210.568V303.834L336.009 335.967C338.239 338.194 339.492 341.215 339.495 344.367C339.497 347.518 338.247 350.541 336.021 352.771C333.794 355 330.773 356.254 327.622 356.257C324.47 356.259 321.447 355.009 319.217 352.783L303.851 337.416V368.125C303.851 371.274 302.6 374.295 300.373 376.522C298.146 378.749 295.126 380 291.976 380H292Z" fill="#8ACBDE"/>
</g>
<g filter="url(#filter2_f_202_252)">
<path d="M1330 1031C1328.06 1031 1326.2 1030.23 1324.83 1028.86C1323.46 1027.49 1322.69 1025.63 1322.69 1023.69V1004.78L1313.24 1014.24C1311.87 1015.61 1310.01 1016.38 1308.06 1016.38C1306.12 1016.38 1304.26 1015.61 1302.89 1014.23C1301.52 1012.86 1300.75 1011 1300.75 1009.06C1300.75 1007.12 1301.53 1005.26 1302.9 1003.89L1322.69 984.098V926.665L1272.96 955.374L1265.71 982.43C1265.2 984.304 1263.98 985.9 1262.3 986.868C1260.61 987.837 1258.62 988.097 1256.74 987.593C1254.87 987.089 1253.27 985.861 1252.31 984.18C1251.34 982.498 1251.08 980.501 1251.58 978.628L1255.05 965.729L1238.67 975.176C1236.99 976.131 1235 976.382 1233.14 975.877C1231.27 975.371 1229.69 974.148 1228.72 972.476C1227.75 970.804 1227.49 968.817 1227.98 966.95C1228.48 965.084 1229.69 963.488 1231.35 962.511L1247.73 953.063L1234.81 949.597C1233.88 949.348 1233.01 948.918 1232.25 948.332C1231.49 947.746 1230.85 947.016 1230.37 946.184C1229.89 945.351 1229.58 944.433 1229.45 943.48C1229.33 942.528 1229.39 941.56 1229.64 940.632C1229.89 939.704 1230.32 938.835 1230.91 938.074C1231.49 937.312 1232.22 936.673 1233.06 936.194C1233.89 935.715 1234.81 935.404 1235.76 935.28C1236.71 935.155 1237.68 935.22 1238.61 935.47L1265.64 942.709L1315.38 914L1265.65 885.291L1238.59 892.531C1236.73 892.994 1234.76 892.708 1233.11 891.734C1231.46 890.76 1230.26 889.175 1229.76 887.322C1229.27 885.469 1229.52 883.495 1230.47 881.827C1231.41 880.158 1232.98 878.929 1234.82 878.403L1247.73 874.937L1231.35 865.489C1230.52 865.012 1229.78 864.374 1229.19 863.612C1228.6 862.85 1228.16 861.979 1227.91 861.048C1227.66 860.117 1227.59 859.146 1227.72 858.189C1227.84 857.233 1228.15 856.311 1228.64 855.476C1229.12 854.64 1229.76 853.909 1230.53 853.323C1231.29 852.737 1232.17 852.309 1233.1 852.062C1234.03 851.816 1235 851.756 1235.96 851.887C1236.91 852.018 1237.84 852.336 1238.67 852.824L1255.05 862.271L1251.58 849.357C1251.31 848.424 1251.24 847.447 1251.35 846.483C1251.47 845.52 1251.77 844.589 1252.25 843.744C1252.73 842.9 1253.37 842.16 1254.14 841.566C1254.91 840.973 1255.79 840.538 1256.73 840.288C1257.66 840.037 1258.64 839.976 1259.6 840.108C1260.57 840.239 1261.49 840.561 1262.33 841.054C1263.16 841.547 1263.89 842.201 1264.47 842.979C1265.05 843.757 1265.47 844.642 1265.71 845.584L1272.95 872.626L1322.69 901.335V843.902L1302.9 824.115C1302.22 823.436 1301.68 822.63 1301.31 821.742C1300.94 820.855 1300.75 819.903 1300.75 818.943C1300.75 817.982 1300.94 817.03 1301.31 816.142C1301.68 815.254 1302.21 814.447 1302.89 813.768C1303.57 813.088 1304.38 812.548 1305.27 812.18C1306.15 811.812 1307.1 811.622 1308.06 811.621C1309.03 811.62 1309.98 811.809 1310.87 812.176C1311.75 812.543 1312.56 813.081 1313.24 813.76L1322.69 823.223V804.312C1322.69 802.373 1323.46 800.513 1324.83 799.142C1326.2 797.77 1328.06 797 1330 797C1331.94 797 1333.8 797.77 1335.17 799.142C1336.54 800.513 1337.31 802.373 1337.31 804.312V823.223L1346.78 813.76C1348.15 812.389 1350.01 811.62 1351.95 811.621C1353.89 811.622 1355.75 812.394 1357.12 813.768C1358.49 815.141 1359.26 817.002 1359.26 818.943C1359.26 820.883 1358.49 822.744 1357.11 824.115L1337.31 843.902V901.335L1387.04 872.626L1394.29 845.57C1394.8 843.696 1396.02 842.1 1397.7 841.132C1399.39 840.163 1401.38 839.903 1403.26 840.407C1405.13 840.911 1406.73 842.139 1407.69 843.82C1408.66 845.502 1408.92 847.499 1408.42 849.372L1404.97 862.271L1421.35 852.824C1423.03 851.869 1425.01 851.618 1426.88 852.123C1428.74 852.629 1430.33 853.852 1431.29 855.524C1432.26 857.196 1432.53 859.183 1432.03 861.05C1431.54 862.916 1430.33 864.512 1428.66 865.489L1412.28 874.937L1425.19 878.403C1427.07 878.907 1428.66 880.135 1429.63 881.816C1430.6 883.497 1430.86 885.494 1430.36 887.368C1429.85 889.241 1428.62 890.838 1426.94 891.806C1425.26 892.774 1423.27 893.035 1421.39 892.531L1394.36 885.291L1344.63 914L1394.35 942.709L1421.39 935.47C1423.27 934.967 1425.26 935.23 1426.94 936.199C1428.62 937.169 1429.85 938.766 1430.35 940.639C1430.85 942.513 1430.59 944.509 1429.62 946.189C1428.65 947.869 1427.05 949.095 1425.18 949.597L1412.27 953.063L1428.65 962.511C1430.31 963.488 1431.52 965.084 1432.02 966.95C1432.51 968.817 1432.25 970.804 1431.28 972.476C1430.31 974.148 1428.73 975.371 1426.86 975.877C1425 976.382 1423.01 976.131 1421.33 975.176L1404.95 965.729L1408.4 978.643C1408.67 979.576 1408.75 980.553 1408.63 981.517C1408.52 982.48 1408.21 983.411 1407.73 984.256C1407.25 985.1 1406.61 985.84 1405.84 986.434C1405.08 987.027 1404.2 987.462 1403.26 987.712C1402.32 987.963 1401.34 988.024 1400.38 987.892C1399.42 987.761 1398.49 987.439 1397.66 986.946C1396.82 986.453 1396.09 985.799 1395.51 985.021C1394.93 984.243 1394.51 983.358 1394.28 982.416L1387.04 955.374L1337.31 926.665V984.098L1357.1 1003.89C1358.47 1005.26 1359.25 1007.12 1359.25 1009.06C1359.25 1011 1358.48 1012.86 1357.11 1014.23C1355.74 1015.61 1353.88 1016.38 1351.94 1016.38C1350 1016.38 1348.13 1015.61 1346.76 1014.24L1337.3 1004.78V1023.69C1337.3 1025.63 1336.53 1027.49 1335.16 1028.86C1333.78 1030.23 1331.92 1031 1329.99 1031H1330Z" fill="#76EBD7"/>
</g>
<g filter="url(#filter3_f_202_252)">
<path d="M1258.5 363C1255.49 363 1252.61 361.805 1250.48 359.678C1248.35 357.55 1247.16 354.665 1247.16 351.656V322.321L1232.5 337C1230.37 339.127 1227.48 340.321 1224.47 340.319C1221.46 340.317 1218.58 339.119 1216.45 336.989C1214.32 334.859 1213.13 331.971 1213.13 328.961C1213.13 325.951 1214.33 323.064 1216.46 320.937L1247.16 290.241V201.147L1170.02 245.683L1158.77 287.655C1157.98 290.561 1156.08 293.038 1153.47 294.539C1150.86 296.041 1147.76 296.446 1144.86 295.663C1141.95 294.881 1139.48 292.977 1137.97 290.368C1136.47 287.76 1136.07 284.662 1136.85 281.756L1142.23 261.746L1116.82 276.402C1114.21 277.882 1111.13 278.273 1108.24 277.488C1105.35 276.703 1102.88 274.807 1101.39 272.213C1099.89 269.618 1099.48 266.537 1100.24 263.641C1101.01 260.745 1102.89 258.269 1105.47 256.754L1130.88 242.098L1110.83 236.721C1109.39 236.334 1108.04 235.667 1106.86 234.759C1105.68 233.85 1104.69 232.718 1103.94 231.426C1103.2 230.135 1102.72 228.71 1102.52 227.232C1102.33 225.754 1102.43 224.253 1102.82 222.814C1103.21 221.375 1103.87 220.026 1104.78 218.845C1105.69 217.664 1106.82 216.673 1108.11 215.929C1109.4 215.186 1110.83 214.704 1112.31 214.511C1113.79 214.318 1115.29 214.418 1116.73 214.805L1158.65 226.036L1235.81 181.5L1158.68 136.964L1116.7 148.195C1113.82 148.914 1110.76 148.471 1108.2 146.959C1105.63 145.448 1103.77 142.99 1103 140.115C1102.23 137.24 1102.63 134.178 1104.09 131.59C1105.56 129.002 1107.99 127.094 1110.85 126.279L1130.88 120.902L1105.47 106.246C1104.17 105.506 1103.03 104.517 1102.11 103.334C1101.2 102.152 1100.52 100.8 1100.13 99.3564C1099.74 97.9127 1099.64 96.4056 1099.83 94.9221C1100.02 93.4386 1100.51 92.0078 1101.26 90.7122C1102 89.4167 1103 88.2819 1104.19 87.3731C1105.38 86.4644 1106.73 85.7997 1108.18 85.4173C1109.63 85.0349 1111.13 84.9424 1112.62 85.1451C1114.1 85.3477 1115.53 85.8416 1116.82 86.5982L1142.23 101.254L1136.85 81.2212C1136.44 79.7733 1136.32 78.2576 1136.5 76.7627C1136.67 75.2677 1137.15 73.8233 1137.89 72.5137C1138.64 71.2041 1139.63 70.0555 1140.82 69.1349C1142.01 68.2143 1143.38 67.5401 1144.83 67.1516C1146.29 66.7631 1147.8 66.668 1149.3 66.872C1150.79 67.076 1152.22 67.5749 1153.52 68.3397C1154.82 69.1044 1155.95 70.1197 1156.85 71.3264C1157.75 72.533 1158.4 73.9069 1158.77 75.3679L1170 117.317L1247.16 161.853V72.7588L1216.46 42.0626C1215.41 41.0094 1214.57 39.7588 1214 38.3821C1213.43 37.0055 1213.13 35.5298 1213.13 34.0393C1213.13 32.5488 1213.42 31.0726 1213.99 29.6952C1214.56 28.3177 1215.4 27.0659 1216.45 26.0112C1217.5 24.9565 1218.75 24.1196 1220.13 23.5482C1221.51 22.9769 1222.98 22.6822 1224.47 22.6812C1225.96 22.6801 1227.44 22.9727 1228.82 23.5421C1230.19 24.1115 1231.45 24.9467 1232.5 25.9999L1247.16 40.6787V11.3438C1247.16 8.3352 1248.35 5.44987 1250.48 3.32251C1252.61 1.19514 1255.49 0 1258.5 0C1261.51 0 1264.39 1.19514 1266.52 3.32251C1268.65 5.44987 1269.84 8.3352 1269.84 11.3438V40.6787L1284.52 25.9999C1286.65 23.8728 1289.54 22.6791 1292.55 22.6812C1295.56 22.6833 1298.45 23.8812 1300.57 26.0112C1302.7 28.1413 1303.89 31.029 1303.89 34.0393C1303.89 37.0495 1302.69 39.9356 1300.56 42.0626L1269.84 72.7588V161.853L1346.98 117.317L1358.23 75.3452C1359.02 72.4389 1360.92 69.9624 1363.53 68.4605C1366.14 66.9586 1369.24 66.5543 1372.14 67.3365C1375.05 68.1187 1377.52 70.0234 1379.03 72.6316C1380.53 75.2397 1380.93 78.3377 1380.15 81.2439L1374.8 101.254L1400.21 86.5982C1402.81 85.1176 1405.89 84.7272 1408.79 85.512C1411.68 86.2969 1414.14 88.1933 1415.64 90.7875C1417.13 93.3817 1417.55 96.463 1416.78 99.359C1416.01 102.255 1414.13 104.731 1411.55 106.246L1386.14 120.902L1406.17 126.279C1409.08 127.061 1411.56 128.966 1413.06 131.574C1414.56 134.182 1414.96 137.28 1414.18 140.186C1413.4 143.092 1411.49 145.569 1408.89 147.071C1406.28 148.573 1403.18 148.977 1400.27 148.195L1358.35 136.964L1281.19 181.5L1358.33 226.036L1400.27 214.805C1403.18 214.026 1406.28 214.433 1408.88 215.937C1411.49 217.441 1413.39 219.919 1414.17 222.825C1414.95 225.732 1414.54 228.828 1413.04 231.434C1411.53 234.04 1409.06 235.942 1406.15 236.721L1386.12 242.098L1411.53 256.754C1414.11 258.269 1415.99 260.745 1416.76 263.641C1417.52 266.537 1417.11 269.618 1415.61 272.213C1414.12 274.807 1411.65 276.703 1408.76 277.488C1405.87 278.273 1402.79 277.882 1400.18 276.402L1374.77 261.746L1380.13 281.779C1380.54 283.227 1380.66 284.742 1380.48 286.237C1380.3 287.732 1379.83 289.177 1379.09 290.486C1378.34 291.796 1377.35 292.944 1376.15 293.865C1374.96 294.786 1373.6 295.46 1372.15 295.848C1370.69 296.237 1369.17 296.332 1367.68 296.128C1366.19 295.924 1364.75 295.425 1363.46 294.66C1362.16 293.896 1361.03 292.88 1360.13 291.674C1359.23 290.467 1358.58 289.093 1358.21 287.632L1346.98 245.683L1269.84 201.147V290.241L1300.54 320.937C1302.67 323.064 1303.87 325.951 1303.87 328.961C1303.87 331.971 1302.68 334.859 1300.55 336.989C1298.42 339.119 1295.54 340.317 1292.53 340.319C1289.52 340.321 1286.63 339.127 1284.5 337L1269.82 322.321V351.656C1269.82 354.665 1268.63 357.55 1266.5 359.678C1264.37 361.805 1261.49 363 1258.48 363H1258.5Z" fill="#8CC9DF"/>
</g>
</g>
<defs>
<filter id="filter0_f_202_252" x="-160" y="397" width="638" height="638" filterUnits="userSpaceOnUse" color-interpolation-filters="sRGB">
<feFlood flood-opacity="0" result="BackgroundImageFix"/>
<feBlend mode="normal" in="SourceGraphic" in2="BackgroundImageFix" result="shape"/>
<feGaussianBlur stdDeviation="17" result="effect1_foregroundBlur_202_252"/>
</filter>
<filter id="filter1_f_202_252" x="33" y="-69" width="518" height="518" filterUnits="userSpaceOnUse" color-interpolation-filters="sRGB">
<feFlood flood-opacity="0" result="BackgroundImageFix"/>
<feBlend mode="normal" in="SourceGraphic" in2="BackgroundImageFix" result="shape"/>
<feGaussianBlur stdDeviation="34.5" result="effect1_foregroundBlur_202_252"/>
</filter>
<filter id="filter2_f_202_252" x="1125" y="709" width="410" height="410" filterUnits="userSpaceOnUse" color-interpolation-filters="sRGB">
<feFlood flood-opacity="0" result="BackgroundImageFix"/>
<feBlend mode="normal" in="SourceGraphic" in2="BackgroundImageFix" result="shape"/>
<feGaussianBlur stdDeviation="44" result="effect1_foregroundBlur_202_252"/>
</filter>
<filter id="filter3_f_202_252" x="1010" y="-67" width="497" height="497" filterUnits="userSpaceOnUse" color-interpolation-filters="sRGB">
<feFlood flood-opacity="0" result="BackgroundImageFix"/>
<feBlend mode="normal" in="SourceGraphic" in2="BackgroundImageFix" result="shape"/>
<feGaussianBlur stdDeviation="33.5" result="effect1_foregroundBlur_202_252"/>
</filter>
<clipPath id="clip0_202_252">
<rect width="1440" height="1024" fill="white"/>
</clipPath>
</defs>
</svg>
