<svg width="349" height="349" viewBox="0 0 349 349" fill="none" xmlns="http://www.w3.org/2000/svg">
<path d="M174.5 290.834C205.353 290.834 234.943 278.577 256.76 256.76C278.577 234.944 290.833 205.354 290.833 174.5C290.833 143.647 278.577 114.057 256.76 92.2401C234.943 70.4233 205.353 58.1668 174.5 58.1668C143.646 58.1668 114.057 70.4233 92.2398 92.2401C70.4231 114.057 58.1666 143.647 58.1666 174.5C58.1666 205.354 70.4231 234.944 92.2398 256.76C114.057 278.577 143.646 290.834 174.5 290.834V290.834ZM174.5 319.917C94.1863 319.917 29.0833 254.814 29.0833 174.5C29.0833 94.1865 94.1863 29.0835 174.5 29.0835C254.814 29.0835 319.917 94.1865 319.917 174.5C319.917 254.814 254.814 319.917 174.5 319.917ZM159.958 232.667H189.042V261.75H159.958V232.667ZM159.958 87.2502H189.042V203.583H159.958V87.2502Z" fill="white" fill-opacity="0.5"/>
</svg>
